<?xml version="1.0" encoding="UTF-8" standalone="no"?>
<!-- Created with Inkscape (http://www.inkscape.org/) -->
<svg id="svg2" xmlns:rdf="http://www.w3.org/1999/02/22-rdf-syntax-ns#" xmlns="http://www.w3.org/2000/svg" height="156.81" width="377.62" version="1.1" xmlns:cc="http://creativecommons.org/ns#" xmlns:dc="http://purl.org/dc/elements/1.1/">
 <metadata id="metadata7">
  <rdf:RDF>
   <cc:Work rdf:about="">
    <dc:format>image/svg+xml</dc:format>
    <dc:type rdf:resource="http://purl.org/dc/dcmitype/StillImage"/>
    <dc:title/>
   </cc:Work>
  </rdf:RDF>
 </metadata>
 <g id="layer1" transform="translate(-67.128697,-394.4262)">
  <text id="text3156" style="letter-spacing:0px;word-spacing:0px;" font-weight="normal" xml:space="preserve" font-size="60px" font-stretch="normal" line-height="125%" font-variant="normal" y="511.17297" x="142.17897" font-family="Arial" font-style="normal" fill="#000000"><tspan id="tspan3158" x="142.17897" y="511.17297"/></text>
 </g>
 <g id="layer2" transform="translate(-67.128697,-394.4262)">
  <g id="g4043">
   <g id="g3244" font-weight="normal" font-style="normal" font-stretch="normal" font-variant="normal" font-family="Arial" fill="#4cae4c">
    <text id="text3184" style="letter-spacing:0px;word-spacing:0px;" xml:space="preserve" transform="matrix(0.92903605,0.36998922,-0.36998922,0.92903605,0,0)" line-height="125%" font-size="56px" y="432.70816" x="356.65308"><tspan id="tspan3186" font-size="60px" y="432.70816" x="356.65308" fill="#4cae4c">s</tspan></text>
    <text id="text3188" style="letter-spacing:0px;word-spacing:0px;" xml:space="preserve" transform="matrix(0.91627966,-0.40053912,0.40053912,0.91627966,0,0)" line-height="125%" font-size="56px" y="582.12579" x="-27.106287"><tspan id="tspan3190" font-size="60px" y="582.12579" x="-27.106287" fill="#4cae4c">h</tspan></text>
    <text id="text3192" style="letter-spacing:0px;word-spacing:0px;" xml:space="preserve" transform="matrix(0.93140739,-0.3639784,0.3639784,0.93140739,0,0)" line-height="125%" font-size="56px" y="584.57568" x="20.494879"><tspan id="tspan3194" font-size="60px" y="584.57568" x="20.494879" fill="#4cae4c">o</tspan></text>
    <text id="text3196" style="letter-spacing:0px;word-spacing:0px;" xml:space="preserve" transform="matrix(0.6837193,0.72974511,-0.72974511,0.6837193,0,0)" line-height="125%" font-size="56px" y="167.65195" x="545.16864"><tspan id="tspan3198" font-size="60px" y="167.65195" x="545.16864" fill="#4cae4c">r</tspan></text>
    <text id="text3200" style="letter-spacing:0px;word-spacing:0px;" xml:space="preserve" transform="matrix(0.92759624,-0.37358429,0.37358429,0.92759624,0,0)" line-height="125%" font-size="56px" y="620.10199" x="92.852051"><tspan id="tspan3202" x="92.852051" y="620.10199">l</tspan></text>
    <text id="text3204" style="letter-spacing:0px;word-spacing:0px;" xml:space="preserve" transform="matrix(0.68810681,0.74556577,-0.70523595,0.68913752,0,0)" line-height="125%" font-size="57.82855225px" y="154.61018" x="555.66687"><tspan id="tspan3206" font-size="60px" y="154.61018" x="555.66687" fill="#4cae4c">t</tspan></text>
    <text id="text3208" style="letter-spacing:0px;word-spacing:0px;" xml:space="preserve" transform="matrix(0.58891335,-0.80819618,0.80819618,0.58891335,0,0)" line-height="125%" font-size="56px" y="583.24023" x="-227.6214"><tspan id="tspan3210" font-size="60px" y="583.24023" x="-227.6214" fill="#4cae4c">y</tspan></text>
   </g>
   <path id="path3136" d="m289.78,548.81c-1.6991-1.4297-4.7587-5.1146-6.7992-8.1887-2.0404-3.0741-7.3446-9.3996-11.787-14.057l-8.077-8.4676-5.1251,10.406c-2.8188,5.7234-5.9785,12.656-7.0215,15.406l-1.8964,5-7.429,0.321c-9.4521,0.40842-66.627-4.8981-69.075-6.411-1.244-0.76881-0.37989-21.329,1.1519-27.41,0.48493-1.925,1.3937-6.425,2.0195-10,2.1314-12.176,3.9799-20.526,5.9777-27,0.4243-1.375,1.5649-5.425,2.5346-9,1.9032-7.0163,5.3968-18.899,8.3789-28.5,3.4972-11.259,3.5027-11.5,0.265-11.5-5.4471,0-39.201-5.5129-49.182-8.0328-1.925-0.48599-5.975-1.4123-9-2.0585-9.5881-2.0482-24.149-6.0062-35.002-9.5141-5.776-1.867-11.146-3.3945-11.934-3.3945-0.78782,0-3.262-0.87379-5.4981-1.9418s-6.5004-2.5484-9.4762-3.2898c-3.6908-0.91955-5.4904-1.8926-5.662-3.0613-0.33813-2.3038,3.9095-3.2973,8.6677-2.0273,3.1133,0.83099,3.625,0.75469,3.1549-0.4704-0.46632-1.2152,0.52126-1.3893,5.8444-1.0306,3.523,0.23745,7.9805,1.1533,9.9055,2.0352,1.925,0.88191,4.625,1.8382,6,2.1251,1.375,0.28688,4.075,0.97755,6,1.5348,12.092,3.5003,9.3543,2.8621,36.5,8.51,18.02,3.7492,36.135,6.5613,48.5,7.529,6.5149,0.50986,8.0778,0.29143,11.899-1.663,7.6617-3.9188,14.2-2.5265,15.262,3.25,0.35478,1.9301,1.1007,1.9951,21.353,1.8601,11.542-0.0769,29.536-0.62427,39.986-1.2163,10.45-0.59205,23.5-1.3171,29-1.6111,5.5-0.29408,12.925-0.99103,16.5-1.5488,3.575-0.55776,14.15-2.1544,23.5-3.5482,9.35-1.3937,20.6-3.4587,25-4.5889s9.4667-2.2828,11.259-2.5613c1.7926-0.27856,3.5066-0.90676,3.809-1.396,0.30236-0.48923,1.4293-0.88951,2.5043-0.88951s2.7359-0.42745,3.691-0.94988c0.95504-0.52243,4.4364-1.6235,7.7364-2.4469,3.3-0.82334,8.475-2.1906,11.5-3.0382,6.7075-1.8797,13.445-2.0944,12.395-0.39507-0.51814,0.83837-0.18061,0.92229,1.191,0.29613,2.8706-1.3105,17.292-1.7942,15.414-0.51694-1.0971,0.74623-1.1484,1.0244-0.19098,1.0356,3.1368,0.0367-0.28353,1.9612-4.5823,2.5783-2.5997,0.37322-7.1025,1.7492-10.006,3.0578-2.9038,1.3086-5.6472,2.3792-6.0964,2.3792s-2.2254,0.70272-3.947,1.5616c-6.3248,3.1552-28.052,9.2444-42.677,11.961-4.4,0.81718-10.25,2.1346-13,2.9277-4.5742,1.3191-8.6374,1.8368-24.5,3.1216-3.025,0.24501-7.3741,0.93937-9.6646,1.543l-4.1646,1.0976,1.4441,4.8628c1.5098,5.0842,3.7086,10.494,12.367,30.425,7.7686,17.884,7.6911,17.693,8.9699,22,0.65327,2.2,1.5769,4.9,2.0525,6,0.75907,1.7557,2.9464,8.3369,5.9825,18,1.5281,4.8635,4.9989,19.861,5.0065,21.634,0.005,1.0684-1.9831,2.4-5.743,3.8475-7.6826,2.9576-10.413,4.0807-12.486,5.1353-0.95504,0.48583-2.5525,0.88333-3.55,0.88333-0.99746,0-2.2411,0.38649-2.7636,0.85887s-8.15,2.5373-16.95,4.5886c-8.8,2.0514-18.11,4.3649-20.688,5.1411-5.8664,1.7662-5.1158,1.8681-8.748-1.1881zm17.436-3.2989c10.631-2.2436,13.761-2.9949,22.5-5.401,5.9659-1.6426,8.4106-2.4312,11.5-3.7097,1.1-0.45521,5.375-2.0762,9.5-3.6022s7.6677-2.893,7.8728-3.0377c0.50208-0.35454-3.9265-18.457-4.9787-20.351-1.6162-2.9096-0.91801,2.2813,1.1306,8.4052,3.7419,11.186,3.5418,11.425-14.525,17.36-15.532,5.102-29.075,8.6842-44,11.638-3.747,0.74154-4.1599,0.44188-9.5125-6.9027-4.8459-6.6493-22.133-26.5-23.077-26.5-1.426,0-4.1101,4.2155-9.3313,14.655-3.0684,6.1354-5.579,11.664-5.579,12.285,0,0.62147-0.72675,2.2391-1.615,3.5948-2.0314,3.1003-3.9439,3.1254-31.385,0.41203-11.275-1.1149-24.427-2.3-29.228-2.6337-11.942-0.83009-12.318-1.2992-10.828-13.499,1.0294-8.4292,1.8329-13.439,3.5788-22.314,0.32458-1.65,0.96956-5.25,1.4333-8s1.5722-8.1036,2.4632-11.897c0.89102-3.7933,1.4273-7.0898,1.1916-7.3254-0.23561-0.23562-0.71023,0.61802-1.0547,1.897-2.1221,7.879-3.5846,14.708-5.5306,25.825-0.62577,3.575-1.5285,8.075-2.0061,10s-1.1779,8.2894-1.5562,14.143l-0.68778,10.643,3.8622,0.5648c2.1242,0.31064,8.5872,1.0395,14.362,1.6196,32.26,3.2407,41.726,4.0293,48.366,4.0293h7.3478l3.204-8.25c4.0846-10.517,10.484-22.161,12.395-22.553,0.81238-0.16672,3.2649,1.6333,5.4501,4,9.2616,10.031,15.644,17.535,17.801,20.929,3.2112,5.0532,7.2228,8.0571,9.2929,6.9586,0.90372-0.47957,6.1431-1.8216,11.643-2.9824zm1-3.6078c13.386-2.9649,13.068-2.8766,30.634-8.5342,16.988-5.4717,16.671-5.196,14.45-12.576-0.97394-3.236-1.9877-7.0087-2.2527-8.3837-0.26505-1.375-0.85108-3.4-1.3023-4.5-0.45121-1.1-2.9333-8.4868-5.5158-16.415-4.3566-13.375-5.803-17.041-12.068-30.585-5.2653-11.384-11.445-27.55-11.445-29.94,0-2.52-0.11824-2.5602-7.5188-2.5602-5.5915,0-9.3723,0.66914-14.75,2.6105-5.4323,1.9611-9.8742,2.7381-17.855,3.1233-9.8398,0.47491-10.587,0.65376-10.125,2.4224,0.56222,2.1499-2.2956,5.8438-4.5211,5.8438-1.2381,0-1.2146,0.37463,0.15499,2.4648,0.88826,1.3556,1.615,4.0006,1.615,5.8776s0.675,3.9729,1.5,4.6576c0.825,0.68469,1.5,1.7098,1.5,2.278,0,0.56824,1.125,2.5081,2.5,4.3108s2.5,3.5327,2.5,3.8444c0,1.2675-2.3244,0.42109-5.5043-2.0044l-3.3708-2.5711-1.5728,3.0414c-1.6337,3.1591-4.293,5.1007-6.9863,5.1007-2.2478,0-1.9411-1.4005,1.0976-5.0118,2.58-3.0662,2.6113-3.2533,1-5.981-0.91484-1.5487-1.6633-3.9276-1.6633-5.2865s-0.28125-3.877-0.625-5.5957c-0.56311-2.8155-0.9867-3.125-4.2775-3.125-5.1696,0-8.0975-2.3321-8.0975-6.4497,0-2.1686-0.57354-3.5564-1.6387-3.9651-5.106-1.9594-40.744-3.6622-42.249-2.0187-0.85501,0.93397-4.7597,13.01-9.6793,29.934-1.4389,4.95-3.2118,10.816-3.9398,13.035-1.3633,4.1558-4.0848,16.155-5.6623,24.965-0.4924,2.75-1.3301,7.25-1.8615,10-0.53145,2.75-1.3695,7.925-1.8624,11.5-0.49287,3.575-1.2236,8.8401-1.6239,11.7-0.86386,6.1728-2.2808,5.5844,17.517,7.2735,7.425,0.63348,19.8,1.7976,27.5,2.587,19.714,2.0211,21.936,1.9433,23.169-0.81077,8.7342-19.507,15.266-30.75,17.864-30.75,1.777,0,18.58,18.027,24.236,26,4.9826,7.0248,5.9694,7.9914,7.6404,7.4834,0.59987-0.18234,6.4907-1.5276,13.091-2.9896zm42.502-42.717c-1.1807-3.452-2.3498-6.9034-2.598-7.6696-0.24825-0.76622-0.64943-1.1951-0.89151-0.95297-0.24209,0.24208,0.46929,3.569,1.5808,7.3931,2.7714,9.5346,3.0462,10.201,3.5973,8.7294,0.25195-0.67295-0.50792-4.048-1.6886-7.5zm-5.0521-15.077c-2.8925-7.4012-3.9409-9.8605-9.8897-23.199-3.4341-7.7-7.773-18.275-9.6421-23.5s-3.4029-8.4604-3.4084-7.1898c-0.01,2.1844,6.3838,18.778,11.439,29.69,4.2959,9.2725,6.269,13.968,9.1546,21.784,1.5805,4.281,3.0363,7.2957,3.2352,6.6992,0.19883-0.5965-0.20111-2.5242-0.88877-4.2837zm-156-21.55c1.7266-5.702,2.9911-10.811,2.8102-11.354-0.18095-0.54284-1.3681,2.5474-2.6382,6.8673-1.27,4.3198-2.9419,9.8469-3.7152,12.282-0.77334,2.4355-1.3674,5.1355-1.3201,6,0.097,1.7734,0.4667,0.72467,4.8634-13.795zm74.14,0.69951c1.5184-2.8371,0.53359-2.17-2.0929,1.4178-1.4722,2.0111-1.7137,2.7096-0.63346,1.8322,0.96016-0.77976,2.187-2.2423,2.7263-3.25zm-0.51106-5.606c-1.7219-1.6493-1.7432-1.628-0.47833,0.47833,0.72815,1.2125,1.5392,1.9893,1.8022,1.7262,0.26308-0.26308-0.33267-1.2551-1.3239-2.2045zm4-1c-1.7219-1.6493-1.7432-1.628-0.47833,0.47833,0.72815,1.2125,1.5392,1.9893,1.8022,1.7262,0.26308-0.26308-0.33267-1.2551-1.3239-2.2045zm-3.9228-7.4952c-0.27393-0.67703-0.48137,0.11903-0.46099,1.769,0.0204,1.65,0.2445,2.2039,0.49804,1.231,0.25354-0.97297,0.23687-2.323-0.0371-3zm-67.117-8.481c1.5262-4.8125,3.4919-9.4865,4.3681-10.387,1.4151-1.4538,3.4367-1.5446,18.093-0.81236,9.075,0.45339,19.733,1.3868,23.685,2.0741,6.7996,1.1828,7.126,1.3604,6.0863,3.3124-0.97323,1.8272-0.91555,1.9116,0.5055,0.73959,0.88226-0.72763,2.4184-1.2383,3.4137-1.1348,3.5686,0.37096,4.9262-0.13265,2.8096-1.0422-1.9084-0.82005-1.8969-0.86265,0.25-0.92971,1.3646-0.0426,2.25,0.52,2.25,1.4297,0,0.825-0.73125,1.5-1.625,1.5-1.2924,0-1.4949,0.65037-0.98958,3.1771,0.34948,1.7474,0.74323,3.2203,0.875,3.2732s2.2646,1.1018,4.7396,2.331c3.8638,1.919,4.1819,1.9637,2.25,0.3165-2.6916-2.2949-2.91-4.092-0.5-4.1131,1.0188-0.009,1.3182-0.32231,0.71654-0.75-1.6681-1.1859-1.1228-3.6772,0.88968-4.0648,2.8156-0.54223,4.2332,1.3821,2.6062,3.5377-1.2902,1.7094-1.2648,1.7117,0.54952,0.0495,1.4859-1.3613,1.6381-2.0072,0.69523-2.95-2.9467-2.9467-1.2491-3.595,10.543-4.0261,9.5575-0.34942,13.186-0.94286,19.448-3.1803,6.5816-2.3519,8.938-2.7036,16.252-2.4257,5.7084,0.21684,8.5539-0.0378,8.5524-0.76533-0.004-1.9469,9.5341-3.5833,29.498-5.0605,4.4-0.32557,8.45-0.91181,9-1.3028,0.55-0.39093,3.475-1.2043,6.5-1.8074,13.409-2.6737,21.824-4.5421,26-5.7731,14.012-4.1304,25.135-7.8757,25.594-8.6179,0.28825-0.4664,1.3838-0.848,2.4347-0.848,1.0508,0,3.6118-0.95965,5.691-2.1326,2.0792-1.1729,6.0304-2.4668,8.7804-2.8752,4.9455-0.73458,4.9563-0.74404,0.99178-0.86744-2.2302-0.0694-7.5533,1.1698-12,2.7935-23.452,8.5636-34.504,12.082-37.954,12.082-1.331,0-2.682,0.424-3.0023,0.94222-0.32028,0.51822-2.7093,1.2129-5.309,1.5436-2.5997,0.33077-8.3267,1.3286-12.727,2.2174-4.4,0.88878-11.825,1.9714-16.5,2.4059-4.675,0.43443-10.525,1.2045-13,1.7113-2.475,0.50681-7.875,1.6138-12,2.4599-4.125,0.84613-13.612,1.7972-21.083,2.1135-11.428,0.48381-13.583,0.34634-13.583-0.86633,0-2.2772,2.2466-2.6985,17.307-3.2457,8.7739-0.31876,16.933-1.2141,21.5-2.3591,5.8327-1.4625,6.426-1.7606,2.8596-1.4366-22.461,2.0401-32.215,2.7638-49.5,3.6727-24.987,1.3139-59.328,2.0966-62.057,1.4143-1.1313-0.28281-2.7063-1.99-3.5-3.7936-1.3516-3.0714-1.7387-3.2696-6.1041-3.1251-2.8254,0.0935-5.7791,0.93847-7.5,2.1454-2.539,1.7808-3.7372,1.9107-11.339,1.2298-14.482-1.2973-31.783-3.9834-49.5-7.6854-9.35-1.9537-18.8-3.9214-21-4.3728-2.2-0.4513-5.575-1.2762-7.5-1.833-1.925-0.55684-6.425-1.7723-10-2.701s-7.625-2.2658-9-2.9712c-3.3049-1.6957-11.108-3.045-9-1.5563,0.825,0.58273,2.4225,1.0664,3.55,1.0748,1.1275,0.008,2.4775,0.42954,3,0.93581,0.5225,0.50628,4.325,2.0452,8.45,3.4197,4.125,1.3746,6.6,2.567,5.5,2.6498-2,0.15055-2,0.15055,0,1.01,1.7858,0.7674,1.7118,0.86696-0.69098,0.92971-1.48,0.0387-2.9691-0.37971-3.309-0.92971-0.33992-0.55-1.8353-1-3.3231-1s-5.1738-0.94494-8.191-2.0999c-7.3654-2.8193-10.468-3.4898-9.5925-2.0727,0.37983,0.61458,2.5842,1.639,4.8986,2.2766,2.3144,0.63754,9.608,2.8484,16.208,4.913s16.05,4.7315,21,5.9265c4.95,1.1949,10.382,2.5964,12.071,3.1145,1.689,0.51807,4.1866,0.94195,5.55,0.94195s2.9065,0.40391,3.429,0.89757c0.5225,0.49367,2.75,1.1474,4.95,1.4528s6.7,1.02,10,1.5881c3.3,0.56807,12.75,2.0599,21,3.3152s15.576,2.6468,16.281,3.0923c1.5169,0.95934,0.85795,5.435-1.9184,13.031-1.7746,4.8552-2.3122,7.6232-1.4804,7.6232,0.21004,0,1.6306-3.9375,3.1569-8.75zm60.54-2.6667c-0.0434-1.0542,0.19292-1.6448,0.52522-1.3125,0.33229,0.3323,0.36781,1.1948,0.0789,1.9167-0.31922,0.79773-0.55618,0.56078-0.60416-0.60417zm2,0c-0.0434-1.0542,0.19292-1.6448,0.52522-1.3125,0.33229,0.3323,0.36781,1.1948,0.0789,1.9167-0.31922,0.79773-0.55618,0.56078-0.60416-0.60417zm9.921-8.0039c0-1.8195,3.6699-2.527,12.75-2.458,5.2675,0.04,7.25,0.41184,7.25,1.3598,0,1.9956-2.4058,2.5188-11.582,2.5188-6.6069,0-8.4182-0.30565-8.4182-1.4206zm-50.5-2.5794c-4.95-0.34213-8.1-0.73872-7-0.88132,2-0.25925,2-0.25925,0-1.0497-3.6246-1.4326,4.8735-1.9736,28.75-1.8302,20.593,0.1236,22.75,0.29599,22.75,1.8181,0,1.1662-1.1492,1.8715-3.75,2.3014-4.4301,0.73226-27.967,0.52539-40.75-0.35815zm13.738-1.7073c-1.2439-0.23919-3.0439-0.23011-4,0.0202-0.95609,0.25029,0.0617,0.44599,2.2617,0.4349,2.2-0.0111,2.9822-0.21589,1.7383-0.45508zm23.012,0.002c-1.2375-0.23835-3.2625-0.23835-4.5,0s-0.225,0.43337,2.25,0.43337,3.4875-0.19502,2.25-0.43337zm-62.75,0.13769c-0.55-0.22558-4.375-0.84287-8.5-1.3718-4.125-0.52889-9.75-1.4318-12.5-2.0064-6.4781-1.3536-15.079-2.9415-19.5-3.6001-1.925-0.28675-10.475-2.143-19-4.125-15.685-3.6466-23.468-6.1915-19.5-6.3761,2-0.0931,2-0.0931,0-1.0366-1.7769-0.83831-1.7211-0.90003,0.5-0.55331,4.3732,0.68268,20.949,4.0616,39.5,8.0519,3.85,0.82813,11.05,1.9401,16,2.471,4.95,0.53092,10.267,1.4489,11.815,2.0399,1.5483,0.59104,6.4288,1.0746,10.846,1.0746,6.5158,0,8.5784,0.3901,10.935,2.0681,1.5974,1.1375,2.9044,2.4875,2.9044,3,0,0.89643-11.449,1.205-13.5,0.36387zm8-2.4319c-0.33992-0.55-3.404-0.94676-6.809-0.88169-4.9464,0.0945-5.5879,0.27178-3.191,0.88169,4.5562,1.1594,10.717,1.1594,10,0zm-19.5-2c-3.5908-1.15-5.2107-1.15-4.5,0,0.33992,0.55,2.054,0.95514,3.809,0.90032,3.0474-0.0952,3.0785-0.13571,0.69098-0.90032zm-7.25-1.6893c-0.9625-0.25152-2.5375-0.25152-3.5,0-0.9625,0.25153-0.175,0.45733,1.75,0.45733s2.7125-0.2058,1.75-0.45733zm-8.5625-0.99378c-0.72187-0.28888-1.5844-0.25335-1.9167,0.0789-0.33229,0.33229,0.25834,0.56864,1.3125,0.52522,1.165-0.048,1.4019-0.28494,0.60417-0.60417zm-16.457-3.0099c-0.97297-0.25354-2.323-0.23687-3,0.0371-0.67703,0.27392,0.11903,0.48137,1.769,0.46099,1.65-0.0204,2.2039-0.2445,1.231-0.49804zm-27.543-5.9901c-0.72188-0.28888-1.5844-0.25335-1.9167,0.0789-0.33229,0.33229,0.25834,0.56864,1.3125,0.52522,1.165-0.048,1.4019-0.28494,0.60417-0.60417zm151.56,15.021c0.6875-0.27741,1.8125-0.27741,2.5,0s0.125,0.50439-1.25,0.50439-1.9375-0.22698-1.25-0.50439zm6.5-0.027c0.9625-0.25153,2.5375-0.25153,3.5,0s0.175,0.45732-1.75,0.45732-2.7125-0.20579-1.75-0.45732zm-6.5-1.973c0.6875-0.27741,1.8125-0.27741,2.5,0,0.6875,0.27742,0.125,0.50439-1.25,0.50439s-1.9375-0.22697-1.25-0.50439zm6.5-0.0271c0.9625-0.25152,2.5375-0.25152,3.5,0,0.9625,0.25153,0.175,0.45733-1.75,0.45733s-2.7125-0.2058-1.75-0.45733zm-74.78-2.35c-1.2432-2.0114,1.7272-3.9562,6.0425-3.9562,4.1816,0,6.3464,1.7965,4.9288,4.0902-0.77992,1.2619-10.18,1.1471-10.971-0.13405zm7.7654-1.6634c-1.2439-0.23919-3.0439-0.23011-4,0.0202-0.95609,0.25029,0.0617,0.44599,2.2617,0.4349,2.2-0.0111,2.9822-0.21589,1.7383-0.45508zm41.041,19.666c-0.54474-2.0831-2.3583-2.2214-3.0219-0.23059-0.20231,0.60693,0.44456,1.3141,1.4375,1.5715,0.99294,0.25739,1.8757,0.52018,1.9617,0.58398s-0.0838-0.8024-0.37732-1.9249zm57.441-15.695c-2.6291-0.20668-6.6791-0.20418-9,0.005-2.3209,0.20972-0.16983,0.37882,4.7802,0.37577,4.95-0.003,6.8489-0.17464,4.2198-0.38131zm24.468-3.9468c-0.72188-0.28888-1.5844-0.25335-1.9167,0.0789-0.33229,0.33229,0.25834,0.56864,1.3125,0.52522,1.165-0.048,1.4019-0.28494,0.60417-0.60417zm18.562-2.0062c-0.9625-0.25152-2.5375-0.25152-3.5,0-0.9625,0.25153-0.175,0.45733,1.75,0.45733s2.7125-0.2058,1.75-0.45733zm-13.5-0.97295c-0.6875-0.27741-1.8125-0.27741-2.5,0s-0.125,0.50439,1.25,0.50439,1.9375-0.22698,1.25-0.50439zm4.9375-1.0208c-0.72188-0.28888-1.5844-0.25335-1.9167,0.0789-0.33229,0.33229,0.25834,0.56864,1.3125,0.52522,1.165-0.048,1.4019-0.28494,0.60417-0.60417zm19.721-1.8554c18.535-3.4618,23.541-4.6806,30.592-7.4484,1.1-0.4318,4.025-1.3175,6.5-1.9681,2.475-0.65067,6.6415-1.8736,9.2588-2.7176,2.6174-0.844,5.4532-1.2681,6.3019-0.9424,0.99105,0.38031,1.2923,0.18632,0.84202-0.54224-0.4937-0.79883,0.1565-0.93436,2.1981-0.45817,2.1237,0.49535,2.4979,0.40471,1.3992-0.33884-1.2589-0.85191-1.1785-1.0302,0.5-1.1093,1.1-0.0519,1.4464-0.31828,0.76969-0.59209-1.1455-0.4635-22.31,4.7988-26.77,6.6559-1.1,0.45808-3.125,1.1258-4.5,1.4838-1.375,0.35804-3.85,1.0374-5.5,1.5096-9.3872,2.6866-20.787,5.1724-28.602,6.2367-4.8939,0.66651-8.898,1.5624-8.898,1.9908,0,1.1374,0.97392,1.0296,15.908-1.7596zm-1.7206,1.8554c-0.72188-0.28888-1.5844-0.25335-1.9167,0.0789-0.33229,0.33229,0.25834,0.56864,1.3125,0.52522,1.165-0.048,1.4019-0.28494,0.60417-0.60417zm11.062-1.9792c-0.6875-0.27741-1.8125-0.27741-2.5,0s-0.125,0.50439,1.25,0.50439,1.9375-0.22698,1.25-0.50439zm14-3c-0.6875-0.27741-1.8125-0.27741-2.5,0s-0.125,0.50439,1.25,0.50439,1.9375-0.22698,1.25-0.50439zm-288.06-6.02c-0.72188-0.28888-1.5844-0.25335-1.9167,0.0789-0.33229,0.33229,0.25834,0.56864,1.3125,0.52522,1.1649-0.048,1.4019-0.28494,0.60417-0.60417zm-20.738-4.2391c-1.3662-1.3262-9.2313-2.6085-7.95-1.2962,1.0682,1.0941,3.7775,1.9136,6.95,2.1024,1.209,0.0719,1.589-0.23442,1-0.80618z" fill="#d4aa00"/>
  </g>
 </g>
</svg>
